<?xml version="1.0" standalone="no"?><!DOCTYPE svg PUBLIC "-//W3C//DTD SVG 1.1//EN" "http://www.w3.org/Graphics/SVG/1.1/DTD/svg11.dtd"><svg t="1660553460674" class="icon" viewBox="0 0 1024 1024" version="1.1" xmlns="http://www.w3.org/2000/svg" p-id="7788" xmlns:xlink="http://www.w3.org/1999/xlink" width="128" height="128"><defs><style type="text/css">@font-face { font-family: feedback-iconfont; src: url("//at.alicdn.com/t/font_1031158_u69w8yhxdu.woff2?t=1630033759944") format("woff2"), url("//at.alicdn.com/t/font_1031158_u69w8yhxdu.woff?t=1630033759944") format("woff"), url("//at.alicdn.com/t/font_1031158_u69w8yhxdu.ttf?t=1630033759944") format("truetype"); }
</style></defs><path d="M706.56 174.08c-67.864726 0-122.88 55.015274-122.88 122.88s55.015274 122.88 122.88 122.88 122.88-55.015274 122.88-122.88S774.424726 174.08 706.56 174.08zM706.56 399.36c-56.553772 0-102.4-45.846228-102.4-102.4 0-56.553772 45.846228-102.4 102.4-102.4 56.553772 0 102.4 45.846228 102.4 102.4C808.96 353.513772 763.113772 399.36 706.56 399.36zM901.12 0l-778.24 0C55.015274 0 0 55.015274 0 122.88l0 778.24c0 67.864726 55.015274 122.88 122.88 122.88l778.24 0c67.864726 0 122.88-55.015274 122.88-122.88L1024 122.88C1024 55.015274 968.984726 0 901.12 0zM133.12 1003.52C70.910751 1003.52 20.48 953.089249 20.48 890.88L20.48 573.854595l75.394373-75.394373c43.989042-43.988043 115.308394-43.988043 159.296437 0L760.229588 1003.52 133.12 1003.52zM1003.52 890.88c0 62.209249-50.430751 112.64-112.64 112.64L789.192304 1003.52 563.764449 778.091145l146.509924-146.510923c43.989042-43.988043 115.308394-43.988043 159.296437 0L1003.52 765.530412 1003.52 890.88zM1003.52 736.567696 876.811739 609.858435c-47.987138-47.988137-125.790158-47.988137-173.778295 0L549.282591 763.609288 262.411739 476.738435c-47.987138-47.988137-125.790158-47.988137-173.778295 0L20.48 544.891879 20.48 133.12C20.48 70.910751 70.910751 20.48 133.12 20.48l757.76 0c62.209249 0 112.64 50.430751 112.64 112.64L1003.52 736.567696z" p-id="7789" fill="#e6e6e6"></path></svg>