<?xml version="1.0" standalone="no"?><!DOCTYPE svg PUBLIC "-//W3C//DTD SVG 1.1//EN" "http://www.w3.org/Graphics/SVG/1.1/DTD/svg11.dtd"><svg t="1660551585165" class="icon" viewBox="0 0 1030 1024" version="1.1" xmlns="http://www.w3.org/2000/svg" p-id="1628" xmlns:xlink="http://www.w3.org/1999/xlink" width="128.75" height="128"><defs><style type="text/css">@font-face { font-family: feedback-iconfont; src: url("//at.alicdn.com/t/font_1031158_u69w8yhxdu.woff2?t=1630033759944") format("woff2"), url("//at.alicdn.com/t/font_1031158_u69w8yhxdu.woff?t=1630033759944") format("woff"), url("//at.alicdn.com/t/font_1031158_u69w8yhxdu.ttf?t=1630033759944") format("truetype"); }
</style></defs><path d="M516.161223 0.286981C234.202497 0.286981 5.283057 229.199898 5.283057 511.158624s228.919439 510.871643 510.878166 510.871644c281.958726 0 510.871643-228.912917 510.871643-510.871644S798.119949 0.286981 516.161223 0.286981z m0 21.738802c269.957707 0 489.132841 219.175134 489.132841 489.132841s-219.175134 489.132841-489.132841 489.132841c-269.964229 0-489.132841-219.175134-489.132841-489.132841S246.196994 22.025783 516.161223 22.025783z" fill="#2878FF" p-id="1629"></path><path d="M93.601427 354.056153c32.383185-87.092178 90.90772-161.518064 166.005401-213.735542a10.872662 10.872662 0 0 0-12.411924-17.844993c-78.70451 54.715516-140.033631 132.72214-173.969121 224.00163a10.872662 10.872662 0 0 0 20.375644 7.578905zM307.265223 110.057172a448.251108 448.251108 0 0 1 92.610038-35.585631 10.879185 10.879185 0 0 0-5.504815-21.034395 469.689885 469.689885 0 0 0-97.097376 37.314039 10.872662 10.872662 0 0 0 9.992153 19.305987z" fill="#2878FF" p-id="1630"></path><path d="M498.316229 538.050038c190.783592 0 176.310624-96.725605 309.293656 0 48.956331 35.605197 170.760153-91.214268 170.760153-26.891414 0 255.099924-207.108892 462.208815-462.208815 462.208815-255.099924 0-462.208815-207.108892-462.208815-462.208815 0-105.348076 65.627312-14.812127 136.413758-82.422216 140.646726-134.339669 158.198217 109.313631 307.950063 109.31363z" fill="#2878FF" fill-opacity=".3" p-id="1631"></path><path d="M737.730038 298.83842m-15.920917 0a15.920917 15.920917 0 1 0 31.841834 0 15.920917 15.920917 0 1 0-31.841834 0Z" fill="#2878FF" p-id="1632"></path><path d="M721.809121 168.33386a31.020025 31.020025 0 0 0-31.006981 31.006981 31.020025 31.020025 0 0 0 31.006981 31.006981 31.020025 31.020025 0 0 0 31.006981-31.006981 31.020025 31.020025 0 0 0-31.006981-31.006981z m0 10.86614a20.140841 20.140841 0 1 1-20.140841 20.140841 20.153885 20.153885 0 0 1 20.140841-20.140841zM837.40372 301.812586a43.516739 43.516739 0 0 0-43.497172 43.497172 43.516739 43.516739 0 0 0 43.497172 43.497172 43.516739 43.516739 0 0 0 43.497172-43.497172 43.516739 43.516739 0 0 0-43.497172-43.497172z m0 10.872662a32.644076 32.644076 0 0 1 32.631032 32.62451 32.644076 32.644076 0 0 1-32.631032 32.62451 32.644076 32.644076 0 0 1-32.62451-32.62451 32.644076 32.644076 0 0 1 32.62451-32.62451zM803.794344 227.49758h-8.563771a3.678573 3.678573 0 1 0 0 7.357146h8.563771v8.563771a3.672051 3.672051 0 1 0 7.350624 0v-8.563771h8.563771a3.672051 3.672051 0 1 0 0-7.357146h-8.563771v-8.557249a3.672051 3.672051 0 1 0-7.350624 0v8.557249zM660.832204 263.324535h-8.563771a3.678573 3.678573 0 1 0 0 7.357147h8.563771v8.56377a3.685096 3.685096 0 0 0 7.357146 0v-8.56377h8.563771a3.685096 3.685096 0 0 0 0-7.357147h-8.563771V254.760764a3.685096 3.685096 0 0 0-7.357146 0v8.563771zM516.148178 738.310522c52.484892 0 73.525809-26.878369 73.525809-26.878369 40.659975-36.877045 62.894471-11.113987 83.65493-3.404637 57.644025 21.406166 71.151694-24.249885 45.395159-44.527694-67.597045-53.208866-50.913019-193.568611-50.913019-193.568612 3.815541-73.291006-41.860076-107.767847-41.860076-107.767847 0.332637-7.976764 37.235771-72.47572 22.606267-77.797911-14.629503-5.315669-67.825325 49.869452-67.825324 49.869452-34.372484-19.195108-47.788841-20.434344-65.131618-20.434343-16.566624 0-28.44372 0.821809-64.016306 20.434343 0 0-53.195822-55.185121-67.818803-49.869452-14.629503 5.322191 22.273631 69.821146 22.606268 77.797911 0 0-47.012688 32.99628-43.008 107.767847 0 0 17.825427 140.359745-49.765096 193.568612-25.756535 20.277809-12.248866 65.93386 45.388637 44.527694 20.760459-7.70935 43.001478-33.472408 83.65493 3.404637 0 0 21.693146 26.878369 73.506242 26.878369z m7.318013-362.345987c51.858752 0 93.966675 42.107924 93.966675 93.966675 0 51.865274-42.107924 93.966675-93.966675 93.966675-51.865274 0-93.966675-42.101401-93.966675-93.966675 0-51.858752 42.101401-93.966675 93.966675-93.966675z" fill="#2878FF" p-id="1633"></path><path d="M547.266038 461.713121m-49.445503 0a49.445503 49.445503 0 1 0 98.891006 0 49.445503 49.445503 0 1 0-98.891006 0Z" fill="#2878FF" p-id="1634"></path></svg>