<?xml version="1.0" standalone="no"?><!DOCTYPE svg PUBLIC "-//W3C//DTD SVG 1.1//EN" "http://www.w3.org/Graphics/SVG/1.1/DTD/svg11.dtd"><svg t="1660551716470" class="icon" viewBox="0 0 1030 1024" version="1.1" xmlns="http://www.w3.org/2000/svg" p-id="1627" xmlns:xlink="http://www.w3.org/1999/xlink" width="128.75" height="128"><defs><style type="text/css">@font-face { font-family: feedback-iconfont; src: url("//at.alicdn.com/t/font_1031158_u69w8yhxdu.woff2?t=1630033759944") format("woff2"), url("//at.alicdn.com/t/font_1031158_u69w8yhxdu.woff?t=1630033759944") format("woff"), url("//at.alicdn.com/t/font_1031158_u69w8yhxdu.ttf?t=1630033759944") format("truetype"); }
</style></defs><path d="M515.600306 0.286981C233.64158 0.286981 4.728662 229.199898 4.728662 511.158624s228.912917 510.871643 510.871644 510.871644 510.878166-228.912917 510.878165-510.871644S797.559032 0.286981 515.600306 0.286981z m0 21.738802c269.964229 0 489.132841 219.175134 489.13284 489.132841s-219.168611 489.132841-489.13284 489.132841c-269.957707 0-489.132841-219.175134-489.132841-489.132841S245.642599 22.025783 515.600306 22.025783z" fill="#FF3333" p-id="1628"></path><path d="M93.047032 354.056153c32.383185-87.092178 90.901197-161.518064 165.998879-213.735542a10.872662 10.872662 0 0 0-12.411924-17.844993c-78.70451 54.715516-140.027108 132.72214-173.969121 224.00163a10.879185 10.879185 0 0 0 20.382166 7.578905zM306.704306 110.057172a448.394599 448.394599 0 0 1 92.610038-35.585631 10.879185 10.879185 0 0 0-5.504815-21.034395 469.833376 469.833376 0 0 0-97.097376 37.314039 10.872662 10.872662 0 0 0 9.992153 19.305987z" fill="#FF3333" p-id="1629"></path><path d="M497.761834 538.050038c190.77707 0 176.304102-96.725605 309.293656 0 48.956331 35.605197 170.753631-91.214268 170.753631-26.891414 0 255.099924-207.108892 462.208815-462.208815 462.208815-255.099924 0-462.208815-207.108892-462.208816-462.208815 0-105.348076 65.633834-14.812127 136.413758-82.422216 140.646726-134.339669 158.204739 109.313631 307.956586 109.31363z" fill="#FF3333" fill-opacity=".3" p-id="1630"></path><path d="M737.169121 298.83842m-15.920917 0a15.920917 15.920917 0 1 0 31.841834 0 15.920917 15.920917 0 1 0-31.841834 0Z" fill="#FF3333" p-id="1631"></path><path d="M722.428739 168.33386a31.020025 31.020025 0 0 0-31.006981 31.006981 31.020025 31.020025 0 0 0 31.006981 31.006981 31.020025 31.020025 0 0 0 31.006981-31.006981 31.020025 31.020025 0 0 0-31.006981-31.006981z m0 10.86614a20.140841 20.140841 0 1 1-20.140841 20.140841 20.153885 20.153885 0 0 1 20.140841-20.140841zM838.023338 301.812586a43.516739 43.516739 0 0 0-43.497172 43.497172 43.516739 43.516739 0 0 0 43.497172 43.497172 43.516739 43.516739 0 0 0 43.497172-43.497172 43.516739 43.516739 0 0 0-43.497172-43.497172z m0 10.872662a32.637554 32.637554 0 0 1 32.624509 32.62451 32.637554 32.637554 0 0 1-32.624509 32.62451 32.637554 32.637554 0 0 1-32.62451-32.62451 32.637554 32.637554 0 0 1 32.62451-32.62451zM803.233427 227.49758h-8.563771a3.685096 3.685096 0 0 0 0 7.357146h8.563771v8.563771a3.678573 3.678573 0 1 0 7.357146 0v-8.563771h8.563771a3.678573 3.678573 0 1 0 0-7.357146h-8.563771v-8.557249a3.678573 3.678573 0 1 0-7.357146 0v8.557249zM660.271287 263.324535H651.707516a3.678573 3.678573 0 1 0 0 7.357147h8.563771v8.56377a3.685096 3.685096 0 0 0 7.357146 0v-8.56377h8.563771a3.685096 3.685096 0 0 0 0-7.357147h-8.563771V254.760764a3.685096 3.685096 0 0 0-7.357146 0v8.563771zM286.217783 351.323312h99.556281v196.69279H286.217783zM459.652076 351.323312h99.556281v196.69279H459.652076zM746.822115 351.323312H647.265834v175.214879c0 7.161478 0 134.346191-126.708586 178.978242 0 0 35.207338 75.554242 42.290548 88.474905 158.400408-44.390726 183.765605-208.419873 183.974319-267.453147 0.182624-50.899975 0-175.214879 0-175.214879z" fill="#FF3333" p-id="1632"></path></svg>