<?xml version="1.0" standalone="no"?><!DOCTYPE svg PUBLIC "-//W3C//DTD SVG 1.1//EN" "http://www.w3.org/Graphics/SVG/1.1/DTD/svg11.dtd"><svg t="1660615014595" class="icon" viewBox="0 0 1024 1024" version="1.1" xmlns="http://www.w3.org/2000/svg" p-id="1700" xmlns:xlink="http://www.w3.org/1999/xlink" width="128" height="128"><defs><style type="text/css">@font-face { font-family: feedback-iconfont; src: url("//at.alicdn.com/t/font_1031158_u69w8yhxdu.woff2?t=1630033759944") format("woff2"), url("//at.alicdn.com/t/font_1031158_u69w8yhxdu.woff?t=1630033759944") format("woff"), url("//at.alicdn.com/t/font_1031158_u69w8yhxdu.ttf?t=1630033759944") format("truetype"); }
</style></defs><path d="M0.311-7.035h1041.443v1041.443h-1041.443z" fill="#F5CA1E" p-id="1701"></path><path d="M885.652 480.964c-22.734 12.595-55.217 18.858-82.347 21.959 43.018-36.57 84.79-78.224 101.679-130.629 22.909-71.093 23.598-137.006 2.169-207.39-1.947-6.236-7.285-10.835-13.801-11.687-5.988-1.053-12.257 1.74-15.942 6.954-56.836 80.943-131.986 132.576-214.125 147.833 24.545-49.392 51.616-105.143 45.787-163.424-0.682-6.673-5.222-12.137-11.327-14.163-1.433-0.517-3.333-0.858-5.319-0.858-4.677 0-8.902 1.914-11.949 5.002-87.084 88.675-156.585 107.389-240.524 108.842-92.686 1.589-181.194 44.324-242.81 117.25-61.111 72.3-88.159 165.551-74.208 255.859 22.397 145.305 130.839 254.054 276.256 277.029 18.354 2.894 36.542 4.31 54.448 4.31 119.435 0 226.614-63.163 287.857-172.898 6.986-12.485 18.451-24.73 31.442-33.649 59.126-40.45 101.902-92.812 127.075-155.67 3.487-8.69 6.034-19.394 8.287-28.838l1.725-7.121c0.325-1.228 0.512-2.639 0.512-4.095 0-5.377-2.544-10.158-6.5-13.215-2.837-2.183-6.401-3.484-10.259-3.484-2.975 0-5.775 0.772-8.206 2.122zM157.268 591.8c14.029 44.125 100.302 58.901 100.302 58.901-72.002 77.374-100.302-58.901-100.302-58.901zM365.581 650.702s176.048-20.353 246.191-81.004c0 0-102.165 232.956-246.191 81.004z" fill="#040000" p-id="1702"></path></svg>